<svg width="120" height="153" fill="none" xmlns="http://www.w3.org/2000/svg"><path d="M54.149 13.94c-.159 1.353-.66 2.399-1.503 3.137-.838.733-1.954 1.099-3.349 1.099-1.512 0-2.724-.542-3.639-1.626-.908-1.084-1.362-2.534-1.362-4.35v-1.231c0-1.19.211-2.236.633-3.138.428-.902 1.031-1.594 1.81-2.074.78-.486 1.682-.73 2.708-.73 1.359 0 2.449.381 3.269 1.143.82.756 1.298 1.805 1.433 3.146h-1.697c-.146-1.02-.465-1.757-.958-2.214-.486-.457-1.169-.686-2.047-.686-1.079 0-1.925.398-2.54 1.195-.61.797-.915 1.931-.915 3.402v1.239c0 1.389.29 2.493.87 3.313.58.82 1.392 1.23 2.435 1.23.938 0 1.655-.21 2.153-.632.504-.428.838-1.169 1.002-2.223h1.697zm6.282-1.644c-1.448-.416-2.502-.926-3.164-1.53-.657-.609-.985-1.359-.985-2.25 0-1.007.402-1.84 1.204-2.495.809-.663 1.858-.994 3.147-.994.879 0 1.66.17 2.346.51.692.34 1.225.809 1.6 1.406.381.598.571 1.251.571 1.96h-1.696c0-.773-.246-1.38-.738-1.819-.492-.445-1.187-.668-2.083-.668-.832 0-1.483.185-1.951.554-.463.363-.695.87-.695 1.52 0 .522.22.964.66 1.327.445.358 1.198.686 2.258.985 1.067.299 1.899.63 2.496.993.604.357 1.05.776 1.336 1.257.293.48.44 1.046.44 1.696 0 1.037-.405 1.87-1.213 2.496-.809.621-1.89.932-3.243.932a6.06 6.06 0 01-2.461-.501c-.762-.34-1.35-.803-1.767-1.389a3.394 3.394 0 01-.615-1.995h1.696c0 .774.284 1.386.853 1.837.574.445 1.339.668 2.294.668.89 0 1.573-.182 2.048-.545.474-.363.712-.858.712-1.485 0-.627-.22-1.11-.66-1.45-.44-.346-1.236-.686-2.39-1.02zm10.887 0c-1.447-.416-2.502-.926-3.164-1.53-.656-.609-.984-1.359-.984-2.25 0-1.007.401-1.84 1.204-2.495.808-.663 1.857-.994 3.146-.994.88 0 1.661.17 2.347.51.691.34 1.225.809 1.6 1.406.38.598.57 1.251.57 1.96h-1.695c0-.773-.246-1.38-.739-1.819-.492-.445-1.186-.668-2.083-.668-.832 0-1.482.185-1.95.554-.464.363-.695.87-.695 1.52 0 .522.22.964.659 1.327.445.358 1.198.686 2.259.985 1.066.299 1.898.63 2.496.993.603.357 1.049.776 1.336 1.257.293.48.44 1.046.44 1.696 0 1.037-.405 1.87-1.214 2.496-.808.621-1.89.932-3.243.932a6.06 6.06 0 01-2.46-.501c-.763-.34-1.351-.803-1.767-1.389a3.394 3.394 0 01-.616-1.995h1.697c0 .774.284 1.386.852 1.837.575.445 1.34.668 2.294.668.89 0 1.573-.182 2.048-.545.475-.363.712-.858.712-1.485 0-.627-.22-1.11-.66-1.45-.439-.346-1.236-.686-2.39-1.02z" fill="#1A1B22"/><path fill-rule="evenodd" clip-rule="evenodd" d="M16 47h88l-7.603 87.532L60 144l-36.071-9.468L16 47z" fill="#D1D2D6"/><path fill-rule="evenodd" clip-rule="evenodd" d="M34.483 65.158h51.123v9.7H45.071l.97 12.061h38.73l-2.073 32.585-22.639 5.901-20.981-5.936-1.506-14.22 9.724-1.013.816 7.702 12.053 3.411 13.219-3.446.972-15.284H37.011l-2.528-31.46z" fill="#F5F6F7"/></svg>