<svg width="120" height="153" fill="none" xmlns="http://www.w3.org/2000/svg"><path d="M46.666 18h-1.697v-5.915h-6.45V18H36.83V5.203h1.687v5.502h6.451V5.203h1.697V18zM58.44 6.592h-4.113V18h-1.679V6.592h-4.105V5.203h9.897v1.389zm4.278-1.389l4.184 10.442 4.183-10.442h2.189V18h-1.688v-4.983l.159-5.38L67.544 18h-1.292L62.06 7.664l.167 5.353V18h-1.688V5.203h2.18zM78.151 16.62h6.064V18h-7.76V5.203h1.696V16.62z" fill="#1A1B22"/><path fill-rule="evenodd" clip-rule="evenodd" d="M16 47h88l-7.603 87.532L60 144l-36.071-9.468L16 47z" fill="#D1D2D6"/><path fill-rule="evenodd" clip-rule="evenodd" d="M38.553 65.145h48.15l-2.265 26.981-1.743 27.394-22.637 5.901-20.98-5.937-1.508-14.231 9.724-1.019.815 7.691 12.054 3.411 13.22-3.446.97-15.255H53.277v-9.73h21.787l1.01-12.031h-37.52v-9.729z" fill="#F5F6F7"/></svg>