<svg width="120" height="153" fill="none" xmlns="http://www.w3.org/2000/svg"><path d="M21.348 5.203h1.696v9.062c0 1.224-.37 2.182-1.108 2.874-.732.691-1.71 1.037-2.935 1.037-1.271 0-2.262-.325-2.97-.976-.71-.65-1.064-1.561-1.064-2.733h1.687c0 .732.2 1.303.598 1.714.404.41.987.615 1.749.615.697 0 1.26-.22 1.688-.66.433-.439.653-1.054.659-1.845V5.203zM31.734 18c-.094-.188-.17-.521-.228-1.002-.756.785-1.659 1.178-2.707 1.178-.938 0-1.708-.264-2.312-.791-.597-.533-.896-1.207-.896-2.022 0-.99.375-1.758 1.125-2.303.755-.55 1.816-.826 3.181-.826h1.582v-.747c0-.568-.17-1.02-.51-1.353-.34-.34-.84-.51-1.502-.51-.58 0-1.067.147-1.46.44-.392.292-.588.647-.588 1.063h-1.635c0-.475.167-.932.501-1.371.34-.445.797-.797 1.371-1.055a4.643 4.643 0 011.907-.387c1.096 0 1.954.276 2.576.827.62.545.943 1.297.966 2.258v4.377c0 .873.112 1.568.334 2.083V18h-1.705zm-2.698-1.24c.51 0 .993-.131 1.45-.395.457-.263.788-.606.993-1.028v-1.951h-1.274c-1.992 0-2.988.583-2.988 1.749 0 .51.17.908.51 1.195.34.287.776.43 1.309.43zm9.815-.966l2.356-7.304h1.66L39.458 18h-1.239l-3.445-9.51h1.661l2.417 7.304zM50.363 18c-.094-.188-.17-.521-.229-1.002-.756.785-1.658 1.178-2.707 1.178-.937 0-1.708-.264-2.311-.791-.598-.533-.897-1.207-.897-2.022 0-.99.375-1.758 1.125-2.303.756-.55 1.816-.826 3.182-.826h1.582v-.747c0-.568-.17-1.02-.51-1.353-.34-.34-.84-.51-1.503-.51-.58 0-1.066.147-1.459.44-.392.292-.589.647-.589 1.063h-1.634c0-.475.167-.932.5-1.371.34-.445.797-.797 1.372-1.055a4.643 4.643 0 011.907-.387c1.096 0 1.954.276 2.575.827.621.545.943 1.297.967 2.258v4.377c0 .873.111 1.568.334 2.083V18h-1.705zm-2.699-1.24c.51 0 .994-.131 1.45-.395.458-.263.789-.606.994-1.028v-1.951h-1.275c-1.992 0-2.988.583-2.988 1.749 0 .51.17.908.51 1.195.34.287.776.43 1.31.43zm15.509-4.464c-1.447-.416-2.502-.926-3.164-1.53-.657-.609-.985-1.359-.985-2.25 0-1.007.402-1.84 1.204-2.495.81-.663 1.858-.994 3.147-.994.879 0 1.661.17 2.347.51.691.34 1.224.809 1.6 1.406.38.598.57 1.251.57 1.96h-1.696c0-.773-.246-1.38-.738-1.819-.492-.445-1.186-.668-2.083-.668-.832 0-1.482.185-1.951.554-.463.363-.694.87-.694 1.52 0 .522.22.964.659 1.327.445.358 1.198.686 2.258.985 1.067.299 1.899.63 2.497.993.603.357 1.048.776 1.335 1.257.293.48.44 1.046.44 1.696 0 1.037-.404 1.87-1.213 2.496-.809.621-1.89.932-3.243.932a6.06 6.06 0 01-2.461-.501c-.762-.34-1.35-.803-1.767-1.389a3.394 3.394 0 01-.615-1.995h1.696c0 .774.285 1.386.853 1.837.574.445 1.339.668 2.294.668.89 0 1.573-.182 2.048-.545.474-.363.712-.858.712-1.485 0-.627-.22-1.11-.66-1.45-.439-.346-1.236-.686-2.39-1.02zm10.676 4.553c.58 0 1.087-.176 1.52-.528.434-.351.675-.79.722-1.318h1.538c-.03.545-.217 1.063-.563 1.556a3.696 3.696 0 01-1.389 1.177 3.967 3.967 0 01-1.828.44c-1.294 0-2.326-.43-3.093-1.292-.762-.867-1.143-2.051-1.143-3.551v-.273c0-.925.17-1.748.51-2.47.34-.72.826-1.28 1.459-1.678.639-.398 1.391-.598 2.259-.598 1.066 0 1.95.32 2.654.958.709.64 1.087 1.468 1.134 2.488H76.09c-.047-.615-.282-1.12-.703-1.512-.416-.398-.932-.598-1.547-.598-.826 0-1.468.3-1.925.897-.451.592-.677 1.45-.677 2.575v.308c0 1.095.226 1.94.677 2.53.451.593 1.096.889 1.933.889zm10.404-6.9a4.872 4.872 0 00-.8-.061c-1.066 0-1.79.454-2.17 1.362V18h-1.626V8.49h1.582l.026 1.099c.533-.85 1.29-1.275 2.268-1.275.316 0 .556.041.72.123V9.95zM87.724 18h-1.626V8.49h1.626V18zM85.965 5.968c0-.264.08-.487.237-.668.165-.182.405-.273.721-.273.317 0 .557.091.72.273a.96.96 0 01.247.668.929.929 0 01-.246.659c-.164.176-.404.264-.72.264-.317 0-.557-.088-.722-.264a.949.949 0 01-.237-.66zm12.602 7.383c0 1.447-.331 2.613-.994 3.498-.662.884-1.558 1.327-2.689 1.327-1.154 0-2.063-.366-2.725-1.099v4.58h-1.626V8.49h1.486l.079 1.055c.662-.82 1.582-1.23 2.76-1.23 1.142 0 2.044.43 2.707 1.291.668.862 1.002 2.06 1.002 3.595v.15zm-1.626-.185c0-1.072-.229-1.919-.686-2.54-.457-.621-1.084-.932-1.88-.932-.985 0-1.723.437-2.216 1.31v4.544c.487.867 1.23 1.3 2.233 1.3.78 0 1.397-.307 1.854-.922.463-.621.695-1.541.695-2.76zm6.106-6.979V8.49h1.775v1.257h-1.775v5.898c0 .38.079.668.237.86.158.188.428.282.809.282.187 0 .445-.035.773-.105V18a4.716 4.716 0 01-1.248.176c-.726 0-1.274-.22-1.643-.66-.37-.439-.554-1.063-.554-1.871V9.747h-1.732V8.49h1.732V6.187h1.626z" fill="#1A1B22"/><path d="M14 47h92v92H14V47z" fill="#D1D2D6"/><path d="M38.191 123.882l7.04-4.261c1.359 2.409 2.595 4.446 5.558 4.446 2.841 0 4.632-1.111 4.632-5.434V89.237h8.646v29.519c0 8.954-5.249 13.03-12.907 13.03-6.916 0-10.931-3.582-12.969-7.905m30.569-.926l7.04-4.076c1.853 3.026 4.261 5.249 8.522 5.249 3.583 0 5.867-1.791 5.867-4.261 0-2.965-2.346-4.015-6.299-5.743l-2.16-.927c-6.239-2.655-10.376-5.99-10.376-13.03 0-6.485 4.94-11.425 12.66-11.425 5.496 0 9.449 1.914 12.289 6.916l-6.731 4.323c-1.483-2.655-3.088-3.705-5.558-3.705-2.532 0-4.138 1.606-4.138 3.705 0 2.594 1.606 3.644 5.31 5.25l2.162.926c7.35 3.15 11.487 6.361 11.487 13.586 0 7.782-6.114 12.043-14.327 12.043-8.028 0-13.216-3.829-15.748-8.831" fill="#F5F6F7"/></svg>