<svg width="120" height="153" fill="none" xmlns="http://www.w3.org/2000/svg"><path d="M26.749 13.966l.246 1.687.36-1.52 2.531-8.93h1.424l2.47 8.93.351 1.547.273-1.723 1.986-8.754h1.697L34.983 18h-1.538l-2.637-9.325-.202-.976-.202.976L27.672 18h-1.539L23.04 5.203h1.687l2.022 8.763zm16.829 4.21c-1.29 0-2.338-.422-3.147-1.266-.808-.85-1.213-1.983-1.213-3.401v-.299c0-.943.179-1.784.536-2.523.364-.744.867-1.324 1.512-1.74a3.803 3.803 0 012.11-.633c1.236 0 2.197.408 2.882 1.222.686.815 1.028 1.98 1.028 3.498v.677h-6.442c.024.937.296 1.696.817 2.276.528.574 1.196.862 2.004.862.575 0 1.061-.118 1.46-.352a3.666 3.666 0 001.045-.932l.993.774c-.796 1.225-1.992 1.837-3.585 1.837zm-.203-8.526a2.16 2.16 0 00-1.652.721c-.445.475-.72 1.143-.826 2.004h4.764v-.123c-.047-.826-.27-1.465-.668-1.916-.399-.457-.938-.686-1.618-.686zm14.052 3.7c0 1.454-.334 2.623-1.002 3.507-.668.88-1.564 1.319-2.69 1.319-1.2 0-2.13-.425-2.786-1.275L50.87 18h-1.494V4.5h1.626v5.036c.656-.814 1.562-1.222 2.716-1.222 1.154 0 2.06.437 2.716 1.31.662.873.993 2.068.993 3.586v.14zm-1.626-.184c0-1.107-.214-1.963-.642-2.566-.427-.604-1.043-.906-1.845-.906-1.073 0-1.843.498-2.312 1.494v4.114c.498.996 1.275 1.494 2.33 1.494.779 0 1.385-.302 1.819-.905.433-.604.65-1.512.65-2.725zm11.916.185c0 1.447-.331 2.613-.993 3.498-.663.884-1.559 1.327-2.69 1.327-1.154 0-2.062-.366-2.724-1.099v4.58h-1.626V8.49h1.485l.079 1.055c.662-.82 1.582-1.23 2.76-1.23 1.142 0 2.045.43 2.707 1.291.668.862 1.002 2.06 1.002 3.595v.15zm-1.626-.185c0-1.072-.229-1.919-.686-2.54-.457-.621-1.084-.932-1.88-.932-.985 0-1.723.437-2.215 1.31v4.544c.486.867 1.23 1.3 2.232 1.3.78 0 1.397-.307 1.855-.922.462-.621.694-1.541.694-2.76zM75.862 18c-.094-.188-.17-.521-.228-1.002-.756.785-1.659 1.178-2.707 1.178-.938 0-1.708-.264-2.312-.791-.598-.533-.896-1.207-.896-2.022 0-.99.375-1.758 1.125-2.303.755-.55 1.816-.826 3.181-.826h1.582v-.747c0-.568-.17-1.02-.51-1.353-.34-.34-.84-.51-1.502-.51-.58 0-1.067.147-1.46.44-.392.292-.588.647-.588 1.063h-1.635c0-.475.167-.932.5-1.371.34-.445.798-.797 1.372-1.055a4.643 4.643 0 011.907-.387c1.096 0 1.954.276 2.575.827.621.545.944 1.297.967 2.258v4.377c0 .873.111 1.568.334 2.083V18h-1.705zm-2.698-1.24c.51 0 .993-.131 1.45-.395.457-.263.788-.606.993-1.028v-1.951h-1.274c-1.992 0-2.989.583-2.989 1.749 0 .51.17.908.51 1.195.34.287.777.43 1.31.43zm10.632.089c.58 0 1.087-.176 1.521-.528.434-.351.674-.79.72-1.318h1.539c-.03.545-.217 1.063-.563 1.556a3.696 3.696 0 01-1.388 1.177 3.967 3.967 0 01-1.829.44c-1.294 0-2.326-.43-3.093-1.292-.762-.867-1.143-2.051-1.143-3.551v-.273c0-.925.17-1.748.51-2.47.34-.72.826-1.28 1.459-1.678.639-.398 1.392-.598 2.259-.598 1.066 0 1.95.32 2.654.958.709.64 1.087 1.468 1.134 2.488h-1.538c-.047-.615-.282-1.12-.703-1.512-.416-.398-.932-.598-1.547-.598-.826 0-1.468.3-1.925.897-.451.592-.677 1.45-.677 2.575v.308c0 1.095.226 1.94.677 2.53.451.593 1.096.889 1.933.889zm8.462-3.252l-1.02 1.063V18h-1.625V4.5h1.626v8.165l.87-1.046L95.07 8.49h1.977l-3.7 3.973L97.478 18h-1.906l-3.314-4.403z" fill="#1A1B22"/><path d="M101.829 119.802l-40.144 22.711v-17.685l25.013-13.763 15.131 8.737zm2.75-2.487V69.828l-14.684 8.487v30.527l14.684 8.473zm-86.565 2.487l40.144 22.711v-17.685l-25.026-13.763-15.118 8.737zm-2.75-2.487V69.828l14.684 8.487v30.527l-14.684 8.473zm1.723-50.566L58.158 43.46v17.092L31.777 75.065l-.21.119-14.58-8.435zm85.869 0L61.685 43.46v17.092l26.381 14.5.21.118 14.58-8.42zm-44.699 54.053l-24.684-13.579V80.341l24.684 14.25v26.211zm3.527 0l24.684-13.566V80.341l-24.684 14.25v26.211zm-26.54-43.566L59.92 63.618l24.777 13.618L59.92 91.54 35.144 77.236z" fill="#D1D2D6"/></svg>